<svg width="883" height="1026" viewBox="0 0 883 1026" fill="none" xmlns="http://www.w3.org/2000/svg">
<path opacity="0.1" d="M501.008 111.846L498.815 105.818M501.008 111.846L548.871 120.31M501.008 111.846L451.839 107.251M501.008 111.846L501.28 117.776M498.815 105.818L544.517 108.308M498.815 105.818L494.809 99.9195M498.815 105.818L451.839 107.251M548.871 120.31L544.517 108.308M548.871 120.31L594.985 132.549M548.871 120.31L549.422 132.108M544.517 108.308L588.514 114.692M544.517 108.308L536.556 96.5647M594.985 132.549L588.514 114.692M594.985 132.549L595.813 150.103M594.985 132.549L638.9 148.445M588.514 114.692L576.664 97.2198M588.514 114.692L630.371 124.914M638.9 148.445L630.371 124.914M638.9 148.445L680.188 167.872M638.9 148.445L639.994 171.603M630.371 124.914L669.681 138.872M630.371 124.914L614.726 101.883M680.188 167.872L669.681 138.872M680.188 167.872L718.457 190.61M680.188 167.872L681.533 196.374M669.681 138.872L706.076 156.438M669.681 138.872L650.409 110.503M718.457 190.61L706.076 156.438M718.457 190.61L753.323 216.453M718.457 190.61L720.046 224.215M706.076 156.438L739.193 177.427M706.076 156.438L683.353 123.001M753.323 216.453L739.193 177.427M753.323 216.453L784.492 245.159M753.323 216.453L755.145 254.82M739.193 177.427L768.714 201.662M739.193 177.427L713.27 139.253M784.492 245.159L768.714 201.662M784.492 245.159L811.603 276.439M784.492 245.159L786.495 287.935M768.714 201.662L794.383 228.894M768.714 201.662L739.825 159.107M811.603 276.439L794.383 228.894M811.603 276.439L834.451 309.991M811.603 276.439L813.819 323.193M794.383 228.894L815.925 258.855M794.383 228.894L762.796 182.368L739.825 159.107M834.451 309.991L815.925 258.855M834.451 309.991L852.789 345.503M834.451 309.991L836.831 360.289M815.925 258.855L833.119 291.268L845.84 325.815L866.43 382.649M866.43 382.649L875.27 421.026M866.43 382.649L852.789 345.503M866.43 382.649L869.068 438.512M739.825 159.107L713.27 139.253M739.825 159.107L698.89 119.118L677.007 103.835M713.27 139.253L683.353 123.001M713.27 139.253L677.007 103.835M683.353 123.001L650.409 110.503M683.353 123.001L651.2 91.583M650.409 110.503L614.726 101.883M650.409 110.503L623.119 83.8474M576.664 97.2198L536.556 96.5647M576.664 97.2198L559.855 80.8047M576.664 97.2198L614.726 101.883M614.726 101.883L592.574 80.2429M536.556 96.5647L494.809 99.9195M536.556 96.5647L525.265 85.5312M494.809 99.9195L451.839 107.251M494.809 99.9195L489.137 94.3757M451.839 107.251L489.137 94.3757M451.839 107.251L482.026 89.4012M451.839 107.251L464.569 81.903M451.839 107.251L473.719 85.1926M451.839 107.251L454.908 79.6627M451.839 107.251L445.117 78.5586M451.839 107.251L435.568 78.6312M451.839 107.251L426.626 79.8786M451.839 107.251L411.907 85.6664M451.839 107.251L418.644 82.254M451.839 107.251L406.71 89.9784M451.839 107.251L403.223 95.0336M451.839 107.251L401.586 100.631M451.839 107.251L404.051 112.589M451.839 107.251L401.858 106.561M451.839 107.251L408.057 118.488M451.839 107.251L413.729 124.032M451.839 107.251L420.84 129.006M451.839 107.251L429.148 133.217M451.839 107.251L438.298 136.507M451.839 107.251L447.959 138.747M451.839 107.251L457.75 139.851M451.839 107.251L467.298 139.778M451.839 107.251L476.24 138.529M451.839 107.251L484.223 136.156M451.839 107.251L490.96 132.743M451.839 107.251L496.156 128.429M451.839 107.251L499.644 123.376M451.839 107.251L501.28 117.776M489.137 94.3757L525.265 85.5312M489.137 94.3757L482.026 89.4012M525.265 85.5312L559.855 80.8047M525.265 85.5312L511.074 75.6383M559.855 80.8047L592.574 80.2429M559.855 80.8047L538.765 66.0778M592.574 80.2429L623.119 83.8474M592.574 80.2429L564.775 60.8264M623.119 83.8474L651.2 91.583M623.119 83.8474L588.873 59.9301M651.2 91.583L675.979 103.117M651.2 91.583L610.837 63.3959M677.007 103.835L676.539 103.378L675.979 103.117M677.007 103.835L675.979 103.117M675.979 103.117L647.519 83.2405L630.439 71.1942L610.837 63.3959M610.837 63.3959L588.873 59.9301M610.837 63.3959L563.801 39.5235M588.873 59.9301L564.775 60.8264M588.873 59.9301L548.972 39.6733M564.775 60.8264L538.765 66.0778M564.775 60.8264L532.372 44.3831M538.765 66.0778L511.074 75.6383M538.765 66.0778L514.176 53.6053M511.074 75.6383L482.026 89.4012M511.074 75.6383L494.566 67.2515M482.026 89.4012L473.719 85.1926M473.719 85.1926L464.569 81.903M473.719 85.1926L494.566 67.2515M494.566 67.2515L514.176 53.6053M494.566 67.2515L476.354 60.7049M514.176 53.6053L532.372 44.3831M514.176 53.6053L487.077 43.8628M532.372 44.3831L548.972 39.6733M532.372 44.3831L496.628 31.5422M548.972 39.6733L563.801 39.5235M548.972 39.6733L504.931 23.8563M563.801 39.5235L511.919 20.8791M511.919 20.8791L504.931 23.8563M511.919 20.8791L457.16 8.18696M511.919 20.8791L517.499 22.6423M504.931 23.8563L496.628 31.5422M504.931 23.8563L458.492 13.0823M496.628 31.5422L487.077 43.8628M496.628 31.5422L458.917 22.7966M487.077 43.8628L476.354 60.7049M487.077 43.8628L458.455 37.2327M464.569 81.903L476.354 60.7049M464.569 81.903L454.908 79.6627M476.354 60.7049L457.118 56.2489M454.908 79.6627L457.118 56.2489M454.908 79.6627L445.117 78.5586M457.118 56.2489L458.455 37.2327M457.118 56.2489L437.639 54.0478M458.455 37.2327L458.917 22.7966M458.455 37.2327L429.455 33.9609M458.917 22.7966L458.492 13.0823M458.917 22.7966L420.685 18.4854M458.492 13.0823L457.16 8.18696M458.492 13.0823L411.4 7.77024M457.16 8.18696L401.663 1.92388M401.663 1.92388L411.4 7.77024M401.663 1.92388L347.522 2.3398M401.663 1.92388L391.585 1L329.774 1.47385M411.4 7.77024L420.685 18.4854M411.4 7.77024L365.456 8.12518M420.685 18.4854L429.455 33.9609M420.685 18.4854L383.4 18.7708M429.455 33.9609L437.639 54.0478M429.455 33.9609L401.174 34.1788M445.117 78.5586L435.568 78.6312M445.117 78.5586L437.639 54.0478M437.639 54.0478L418.623 54.1947M435.568 78.6312L418.623 54.1947M435.568 78.6312L426.626 79.8786M418.623 54.1947L401.174 34.1788M418.623 54.1947L400.837 56.6772M401.174 34.1788L383.4 18.7708M401.174 34.1788L374.701 37.8742M383.4 18.7708L365.456 8.12518M383.4 18.7708L348.496 23.6427M365.456 8.12518L347.522 2.3398M365.456 8.12518L322.455 14.129M347.522 2.3398L329.774 1.47385M347.522 2.3398L296.856 9.41275M329.774 1.47385L271.915 9.55114M271.915 9.55114L296.856 9.41275M271.915 9.55114L220.211 24.926M271.915 9.55114L247.892 14.5368L190.262 31.6715M296.856 9.41275L322.455 14.129M322.455 14.129L348.496 23.6427M322.455 14.129L284.048 25.5488M348.496 23.6427L374.701 37.8742M348.496 23.6427L317.31 32.9168M374.701 37.8742L400.837 56.6772M374.701 37.8742L351.039 44.9094M400.837 56.6772L426.626 79.8786M400.837 56.6772L384.929 61.4063M426.626 79.8786L418.644 82.254M418.644 82.254L384.929 61.4063M418.644 82.254L411.907 85.6664M384.929 61.4063L351.039 44.9094M384.929 61.4063L371.548 68.1938M351.039 44.9094L317.31 32.9168M351.039 44.9094L331.123 55.0092M317.31 32.9168L284.048 25.5488M317.31 32.9168L291.041 46.2346M284.048 25.5488L251.572 22.8774M284.048 25.5488L251.702 41.9511M220.211 24.926L190.262 31.6715M220.211 24.926L251.572 22.8774M220.211 24.926L176.68 46.9987M190.262 31.6715L162.017 43.052L108.968 69.9527M190.262 31.6715L141.734 56.277M108.968 69.9527L141.734 56.277M108.968 69.9527L67.8831 103.987M108.968 69.9527L78.6588 87.8961L34.4848 124.503M141.734 56.277L176.68 46.9987M141.734 56.277L104.175 87.4069M251.572 22.8774L213.461 42.2072M176.68 46.9987L213.461 42.2072M176.68 46.9987L142.97 74.9289M213.461 42.2072L251.702 41.9511M213.461 42.2072L183.929 66.6699M251.702 41.9511L291.041 46.2346M251.702 41.9511L226.643 62.7078M291.041 46.2346L331.123 55.0092M291.041 46.2346L270.716 63.0799M331.123 55.0092L371.548 68.1938M331.123 55.0092L315.702 67.7888M411.907 85.6664L371.548 68.1938M411.907 85.6664L406.71 89.9784M371.548 68.1938L361.168 76.7865M406.71 89.9784L361.168 76.7865M406.71 89.9784L403.223 95.0336M361.168 76.7865L315.702 67.7888M361.168 76.7865L354.224 86.8462M315.702 67.7888L270.716 63.0799M315.702 67.7888L305.362 82.7576M270.716 63.0799L226.643 62.7078M270.716 63.0799L257.092 82.8135M226.643 62.7078L183.929 66.6699M226.643 62.7078L209.877 87.0132M183.929 66.6699L142.97 74.9289M183.929 66.6699L164.156 95.3172M142.97 74.9289L104.175 87.4069M142.97 74.9289L120.395 107.64M104.175 87.4069L67.8831 103.987M104.175 87.4069L78.9967 123.869M67.8831 103.987L34.4848 124.503M67.8831 103.987L40.3721 143.846M34.4848 124.503L4.28382 148.76M34.4848 124.503L4.88594 167.377M4.28382 148.76L-22.4434 176.529L-55.3282 224.168M4.28382 148.76L-27.1175 194.238M-55.3282 224.168L-27.1175 194.238M-55.3282 224.168L-70.7479 276.939M-55.3282 224.168L-79.4761 256.879M-27.1175 194.238L4.88594 167.377M-27.1175 194.238L-41.8384 244.612M4.88594 167.377L40.3721 143.846M4.88594 167.377L-9.00068 214.872M40.3721 143.846L78.9967 123.869M40.3721 143.846L27.4744 187.998M78.9967 123.869L120.395 107.64M78.9967 123.869L67.1841 164.26M120.395 107.64L164.156 95.3172M120.395 107.64L109.809 143.876M164.156 95.3172L209.877 87.0132M164.156 95.3172L154.885 127.048M209.877 87.0132L257.092 82.8135M209.877 87.0132L202.002 113.94M257.092 82.8135L305.362 82.7576M257.092 82.8135L250.699 104.673M305.362 82.7576L354.224 86.8462M305.362 82.7576L300.53 99.3366M403.223 95.0336L354.224 86.8462M403.223 95.0336L401.586 100.631M354.224 86.8462L350.98 97.9851M401.586 100.631L350.98 97.9851M401.586 100.631L401.858 106.561M350.98 97.9851L300.53 99.3366M350.98 97.9851L351.532 109.785M300.53 99.3366L250.699 104.673M300.53 99.3366L301.358 116.892M250.699 104.673L202.002 113.94M250.699 104.673L251.79 127.818M202.002 113.94L154.885 127.048M202.002 113.94L203.349 142.45M154.885 127.048L109.809 143.876M154.885 127.048L156.473 160.65M109.809 143.876L67.1841 164.26M109.809 143.876L111.611 182.245M67.1841 164.26L27.4744 187.998M67.1841 164.26L69.2052 207.027M27.4744 187.998L-9.00068 214.872M27.4744 187.998L29.6705 234.752M-9.00068 214.872L-6.62258 265.158M-9.00068 214.872L-41.8384 244.612M-41.8384 244.612L-39.321 297.957M-41.8384 244.612L-70.7479 276.939M-70.7479 276.939L-68.115 332.807M-70.7479 276.939L-95.4511 311.537M-79.4761 256.879L-95.4511 311.537M-79.4761 256.879L-99.329 292.065M-95.4511 311.537L-115.701 348.084M-95.4511 311.537L-92.7179 369.422M-99.329 292.065L-115.701 348.084M-99.329 292.065L-114.7 329.365L-125.432 368.438M-115.701 348.084L-131.312 386.201M-115.701 348.084L-112.905 407.39M-148.039 465.757L-149 506.395L-146.2 565.721M-148.039 465.757L-142.126 425.554M-148.039 465.757L-145.199 525.944M-146.2 565.721L-145.199 525.944M-146.2 565.721L-124.337 626.053M-146.2 565.721L-142.264 604.987M-142.126 425.554L-131.312 386.201M-142.126 425.554L-139.271 486.041M-145.199 525.944L-139.271 486.041M-145.199 525.944L-123.017 587.159M-131.312 386.201L-128.472 446.388M-139.271 486.041L-128.472 446.388M-139.271 486.041L-116.98 547.557M-128.472 446.388L-112.905 407.39M-128.472 446.388L-106.286 507.623M-112.905 407.39L-92.7179 369.422M-112.905 407.39L-91.0422 467.722M-68.115 332.807L-39.321 297.957M-68.115 332.807L-47.5191 389.641M-68.115 332.807L-92.7179 369.422M-92.7179 369.422L-71.3879 428.286M-39.321 297.957L-6.62258 265.158M-39.321 297.957L-19.6645 352.195M-6.62258 265.158L29.6705 234.752M-6.62258 265.158L11.9062 316.308M69.2052 207.027L29.6705 234.752M69.2052 207.027L111.611 182.245M69.2052 207.027L84.9621 250.516M29.6705 234.752L46.9111 282.301M111.611 182.245L156.473 160.65M111.611 182.245L125.76 221.269M156.473 160.65L203.349 142.45M156.473 160.65L168.855 194.826M203.349 142.45L251.79 127.818M203.349 142.45L213.855 171.448M251.79 127.818L301.358 116.892M251.79 127.818L260.322 151.36M301.358 116.892L351.532 109.785M301.358 116.892L307.829 134.749M351.532 109.785L401.858 106.561M351.532 109.785L355.886 121.787M401.858 106.561L404.051 112.589M404.051 112.589L355.886 121.787M404.051 112.589L408.057 118.488M355.886 121.787L307.829 134.749M355.886 121.787L363.846 133.53M307.829 134.749L260.322 151.36M307.829 134.749L319.68 152.224M260.322 151.36L213.855 171.448M260.322 151.36L275.967 174.392M213.855 171.448L168.855 194.826M213.855 171.448L233.128 199.819M168.855 194.826L125.76 221.269M168.855 194.826L191.557 228.261M125.76 221.269L84.9621 250.516M125.76 221.269L151.685 259.451M84.9621 250.516L46.9111 282.301M84.9621 250.516L113.874 293.086M46.9111 282.301L11.9062 316.308M46.9111 282.301L78.4985 328.827M11.9062 316.308L45.8985 366.36M11.9062 316.308L-19.6645 352.195M-19.6645 352.195L16.3805 405.281M-19.6645 352.195L-47.5191 389.641M-47.5191 389.641L-9.75842 445.263M-47.5191 389.641L-71.3879 428.286M-71.3879 428.286L-32.2779 485.875M-71.3879 428.286L-91.0422 467.722M-91.0422 467.722L-50.9549 526.766M-91.0422 467.722L-106.286 507.623M-106.286 507.623L-65.613 567.517M-106.286 507.623L-116.98 547.557M-116.98 547.557L-123.017 587.159M-116.98 547.557L-76.1109 607.734M-123.017 587.159L-124.337 626.053M-123.017 587.159L-82.3439 647.053M-124.337 626.053L-120.934 663.852M-124.337 626.053L-84.2541 685.077M-142.264 604.987L-120.934 663.852M-142.264 604.987L-133.428 643.365L-119.779 680.49L-113.148 698.791M-120.934 663.852L-113.148 698.791M-120.934 663.852L-81.8241 721.44M-113.148 698.791L-112.413 700.819M-113.148 698.791L-112.834 700.199L-112.413 700.819M-112.413 700.819L-100.119 734.747M-112.413 700.819L-75.0773 755.802M-100.119 734.747L-82.9111 767.157L-48.9286 817.191M-100.119 734.747L-64.074 787.833M-48.9286 817.191L-64.074 787.833M-48.9286 817.191L-0.803564 864.212M-48.9286 817.191L-29.7804 843.644L-6.81547 866.905L34.1132 906.9L85.4941 942.761M-64.074 787.833L-75.0773 755.802M-64.074 787.833L-13.0315 837.689M-75.0773 755.802L-81.8241 721.44M-75.0773 755.802L-21.6015 808.047M-81.8241 721.44L-84.2541 685.077M-81.8241 721.44L-26.4363 775.555M-84.2541 685.077L-82.3439 647.053M-84.2541 685.077L-27.4856 740.545M-82.3439 647.053L-76.1109 607.734M-82.3439 647.053L-24.7396 703.338M-65.613 567.517L-50.9549 526.766M-65.613 567.517L-8.01462 623.783M-65.613 567.517L-76.1109 607.734M-76.1109 607.734L-18.2312 664.286M-50.9549 526.766L-32.2779 485.875M-50.9549 526.766L5.81359 582.233M-32.2779 485.875L-9.75842 445.263M-32.2779 485.875L23.1079 539.99M-9.75842 445.263L16.3805 405.281M-9.75842 445.263L43.7136 497.509M16.3805 405.281L45.8985 366.36M16.3805 405.281L67.4347 455.154M45.8985 366.36L78.4985 328.827M45.8985 366.36L94.0214 413.362M78.4985 328.827L113.874 293.086M78.4985 328.827L123.235 372.544M113.874 293.086L151.685 259.451M113.874 293.086L154.806 333.059M191.557 228.261L233.128 199.819M191.557 228.261L223.709 259.675M191.557 228.261L151.685 259.451M151.685 259.451L188.396 295.322M233.128 199.819L275.967 174.392M233.128 199.819L260.397 226.473M275.967 174.392L319.68 152.224M275.967 174.392L298.118 196.031M319.68 152.224L363.846 133.53M319.68 152.224L336.488 168.639M408.057 118.488L363.846 133.53M408.057 118.488L413.729 124.032M363.846 133.53L375.138 144.564M413.729 124.032L375.138 144.564M413.729 124.032L420.84 129.006M375.138 144.564L336.488 168.639M375.138 144.564L389.328 154.459M336.488 168.639L298.118 196.031M336.488 168.639L357.579 183.366M298.118 196.031L260.397 226.473M298.118 196.031L325.917 215.446M260.397 226.473L223.709 259.675M260.397 226.473L294.665 250.398M223.709 259.675L264.096 287.877M223.709 259.675L188.396 295.322M188.396 295.322L234.499 327.521M188.396 295.322L154.806 333.059M154.806 333.059L206.178 368.943M154.806 333.059L123.235 372.544M123.235 372.544L179.418 411.762M123.235 372.544L94.0214 413.362M94.0214 413.362L154.436 455.548M94.0214 413.362L67.4347 455.154M67.4347 455.154L131.51 499.901M67.4347 455.154L43.7136 497.509M43.7136 497.509L110.854 544.373M43.7136 497.509L23.1079 539.99M23.1079 539.99L92.6428 588.543M23.1079 539.99L5.81359 582.233M5.81359 582.233L77.0915 631.984M5.81359 582.233L-8.01462 623.783M-8.01462 623.783L64.3025 674.27M-8.01462 623.783L-18.2312 664.286M-18.2312 664.286L-24.7396 703.338M-18.2312 664.286L54.4349 715.024M-24.7396 703.338L-27.4856 740.545M-24.7396 703.338L47.5756 753.825M-27.4856 740.545L-26.4363 775.555M-27.4856 740.545L43.7826 790.297M-26.4363 775.555L-21.6015 808.047M-26.4363 775.555L43.1005 824.108M-21.6015 808.047L-13.0315 837.689M-21.6015 808.047L45.5294 854.913M-13.0315 837.689L-0.803564 864.212M-13.0315 837.689L51.054 882.433M-0.803564 864.212L14.9642 887.359L71.1357 926.579M-0.803564 864.212L59.6164 906.397M85.4941 942.761L71.1357 926.579M85.4941 942.761L145.349 973.159M85.4941 942.761L102.561 954.808L156.263 982.068M71.1357 926.579L59.6164 906.397M71.1357 926.579L136.568 959.79M59.6164 906.397L51.054 882.433M59.6164 906.397L130.015 942.122M51.054 882.433L45.5294 854.913M51.054 882.433L125.726 920.329M45.5294 854.913L43.1005 824.108M45.5294 854.913L123.744 894.626M43.1005 824.108L43.7826 790.297M43.1005 824.108L124.113 865.225M47.5756 753.825L43.7826 790.297M47.5756 753.825L54.4349 715.024M47.5756 753.825L131.821 796.581M43.7826 790.297L126.817 832.433M54.4349 715.024L64.3025 674.27M54.4349 715.024L139.094 757.998M64.3025 674.27L77.0915 631.984M64.3025 674.27L148.547 717.046M77.0915 631.984L92.6428 588.543M77.0915 631.984L160.101 674.125M92.6428 588.543L110.854 544.373M92.6428 588.543L173.662 629.659M110.854 544.373L131.51 499.901M110.854 544.373L189.053 584.069M131.51 499.901L154.436 455.548M131.51 499.901L206.184 537.797M154.436 455.548L179.418 411.762M154.436 455.548L224.84 491.271M179.418 411.762L206.178 368.943M179.418 411.762L244.857 444.971M206.178 368.943L234.499 327.521M206.178 368.943L266.038 399.32M234.499 327.521L264.096 287.877M234.499 327.521L288.216 354.777M264.096 287.877L294.665 250.398M264.096 287.877L311.11 311.744M294.665 250.398L325.917 215.446M294.665 250.398L334.567 270.657M325.917 215.446L357.579 183.366M325.917 215.446L358.321 231.893M357.579 183.366L389.328 154.459M357.579 183.366L382.148 195.842M420.84 129.006L429.148 133.217M420.84 129.006L389.328 154.459M389.328 154.459L405.836 162.844M429.148 133.217L405.836 162.844M429.148 133.217L438.298 136.507M405.836 162.844L382.148 195.842M405.836 162.844L424.067 169.386M382.148 195.842L409.266 205.577M382.148 195.842L358.321 231.893M358.321 231.893L334.567 270.657M358.321 231.893L394.067 244.741M334.567 270.657L311.11 311.744M334.567 270.657L378.587 286.47M311.11 311.744L363.011 330.38M311.11 311.744L288.216 354.777M288.216 354.777L347.457 376.065M288.216 354.777L266.038 399.32M266.038 399.32L332.089 423.045M266.038 399.32L244.857 444.971M244.857 444.971L317.045 470.909M244.857 444.971L224.84 491.271M224.84 491.271L302.489 519.177M224.84 491.271L206.184 537.797M206.184 537.797L288.546 567.379M206.184 537.797L189.053 584.069M189.053 584.069L275.345 615.065M189.053 584.069L173.662 629.659M173.662 629.659L160.101 674.125M173.662 629.659L263.036 661.779M160.101 674.125L148.547 717.046M160.101 674.125L251.721 707.035M148.547 717.046L139.094 757.998M148.547 717.046L241.502 750.449M139.094 757.998L131.821 796.581M139.094 757.998L232.485 791.554M131.821 796.581L126.817 832.433M131.821 796.581L224.777 829.984M126.817 832.433L124.113 865.225M126.817 832.433L218.418 865.348M124.113 865.225L123.744 894.626M124.113 865.225L213.488 897.345M123.744 894.626L125.726 920.329M123.744 894.626L210.036 925.622M125.726 920.329L130.015 942.122M125.726 920.329L208.091 949.931M130.015 942.122L136.568 959.79M130.015 942.122L207.664 970.027M136.568 959.79L145.349 973.159M136.568 959.79L208.776 985.724M145.349 973.159L156.263 982.068M145.349 973.159L211.4 996.885M156.263 982.068L215.527 1003.37M215.527 1003.37L211.4 996.885M215.527 1003.37L221.083 1005.12L275.847 1017.83M211.4 996.885L208.776 985.724M211.4 996.885L281.085 1013.03M208.776 985.724L207.664 970.027M208.776 985.724L284.94 1003.39M207.664 970.027L208.091 949.931M207.664 970.027L289.603 989.026M208.091 949.931L210.036 925.622M208.091 949.931L294.997 970.07M210.036 925.622L213.488 897.345M210.036 925.622L301.083 946.727M213.488 897.345L218.418 865.348M213.488 897.345L307.786 919.214M218.418 865.348L224.777 829.984M218.418 865.348L315.073 887.763M224.777 829.984L232.485 791.554M224.777 829.984L322.851 852.713M241.502 750.449L251.537 707.817M241.502 750.449L241.33 751.233M232.485 791.554L241.33 751.233M232.485 791.554L331.03 814.408M251.721 707.035L262.842 662.558M251.721 707.035L251.537 707.817M275.345 615.065L288.546 567.379M275.345 615.065L275.141 615.841M263.036 661.779L275.141 615.841M263.036 661.779L262.842 662.558M288.546 567.379L302.489 519.177M288.546 567.379L375.455 587.537M302.489 519.177L317.045 470.909M302.489 519.177L384.428 538.175M317.045 470.909L332.089 423.045M317.045 470.909L393.233 488.586M332.089 423.045L347.457 376.065M332.089 423.045L401.779 439.211M347.457 376.065L363.011 330.38M347.457 376.065L409.967 390.556M363.011 330.38L378.587 286.47M363.011 330.38L417.751 343.077M378.587 286.47L394.067 244.741M378.587 286.47L425.044 297.234M409.266 205.577L424.067 169.386M409.266 205.577L437.869 212.217M409.266 205.577L394.067 244.741M394.067 244.741L431.773 253.468M424.067 169.386L438.298 136.507M424.067 169.386L443.284 173.846M438.298 136.507L447.959 138.747M447.959 138.747L443.284 173.846M447.959 138.747L457.75 139.851M443.284 173.846L437.869 212.217M443.284 173.846L462.783 176.043M437.869 212.217L466.868 215.481M437.869 212.217L431.773 253.468M431.773 253.468L425.044 297.234M431.773 253.468L470.006 257.781M425.044 297.234L417.751 343.077M425.044 297.234L472.156 302.548M417.751 343.077L473.27 349.347M417.751 343.077L409.967 390.556M409.967 390.556L473.352 397.713M409.967 390.556L401.779 439.211M401.779 439.211L401.676 439.805M393.233 488.586L393.129 489.173M393.233 488.586L401.676 439.805M384.428 538.175L384.321 538.763M384.428 538.175L393.129 489.173M375.455 587.537L375.346 588.124M375.455 587.537L384.321 538.763M273.464 615.452L275.141 615.841M275.141 615.841L364.515 636.576L366.284 636.775M261.155 662.166L262.842 662.558M262.842 662.558L355.453 684.036M249.84 707.423L251.537 707.817M251.537 707.817L346.475 729.842L348.257 730.043M239.62 750.837L241.33 751.233M241.33 751.233L337.695 773.566L339.455 773.764M331.03 814.408L322.851 852.713M331.03 814.408L339.455 773.764M331.03 814.408L430.945 825.663M322.851 852.713L315.073 887.763M322.851 852.713L422.276 863.948M315.073 887.763L307.786 919.214M315.073 887.763L413.068 898.827M307.786 919.214L301.083 946.727M307.786 919.214L403.395 929.982M301.083 946.727L294.997 970.07M301.083 946.727L393.385 957.144M294.997 970.07L289.603 989.026M294.997 970.07L383.117 980.014M289.603 989.026L284.94 1003.39M289.603 989.026L372.671 998.394M284.94 1003.39L281.085 1013.03M284.94 1003.39L362.171 1012.1M281.085 1013.03L278.037 1017.86L341.418 1025M281.085 1013.03L351.733 1021M341.418 1025L351.733 1021M341.418 1025L403.232 1024.54M362.171 1012.1L372.671 998.394M362.171 1012.1L437.492 1011.54M362.171 1012.1L351.733 1021M372.671 998.394L383.117 980.014M372.671 998.394L453.681 997.778M383.117 980.014L393.385 957.144M383.117 980.014L469.032 979.358M393.385 957.144L403.395 929.982M393.385 957.144L483.397 956.453M403.395 929.982L413.068 898.827M403.395 929.982L496.639 929.272M413.068 898.827L422.276 863.948M413.068 898.827L508.63 898.084M422.276 863.948L430.945 825.663M422.276 863.948L519.228 863.181M339.455 773.764L437.116 784.781M339.455 773.764L339.576 773.178L348.257 730.043M430.945 825.663L438.997 784.393M430.945 825.663L528.386 824.917M348.257 730.043L444.466 740.886M348.257 730.043L348.376 729.45L357.335 683.649M357.335 683.649L366.284 636.775M357.335 683.649L452.943 694.416M366.284 636.775L456.813 646.974L458.649 646.961M366.284 636.775L366.396 636.189L375.346 588.124M452.943 694.416L458.649 646.961M452.943 694.416L546.187 693.706M452.943 694.416L446.348 740.499M373.574 587.924L375.346 588.124M375.346 588.124L461.694 597.869L463.519 597.855M382.547 538.563L384.321 538.763M384.321 538.763L465.615 547.931L467.467 547.917M391.352 488.973L393.129 489.173M393.129 489.173L468.582 497.684L470.442 497.67M399.878 439.602L401.676 439.805M401.676 439.805L470.545 447.563L472.393 447.549M473.352 397.713L473.27 349.347M473.352 397.713L535.162 397.232M473.352 397.713L472.407 447.18L472.393 447.549M473.27 349.347L472.156 302.548M473.27 349.347L527.391 348.933M470.006 257.781L472.156 302.548M470.006 257.781L466.868 215.481M470.006 257.781L507.292 257.499M472.156 302.548L518.083 302.205M466.868 215.481L462.783 176.043M466.868 215.481L495.152 215.275M462.783 176.043L457.75 139.851M462.783 176.043L481.781 175.91M457.75 139.851L467.298 139.778M467.298 139.778L481.781 175.91M467.298 139.778L476.24 138.529M481.781 175.91L495.152 215.275M481.781 175.91L499.585 173.416M495.152 215.275L521.644 211.577M495.152 215.275L507.292 257.499M507.292 257.499L518.083 302.205M507.292 257.499L542.197 252.635M518.083 302.205L527.391 348.933M518.083 302.205L561.064 296.203M527.391 348.933L578.075 341.851M527.391 348.933L535.162 397.232M535.162 397.232L593.04 389.152M535.162 397.232L541.304 446.653M472.393 447.549L539.423 447.041M472.393 447.549L470.464 497.297L470.442 497.67M470.442 497.67L543.899 497.109M470.442 497.67L467.496 547.544L467.467 547.917M467.467 547.917L546.625 547.315M467.467 547.917L463.556 597.486L463.519 597.855M463.519 597.855L547.609 597.213M463.519 597.855L458.694 646.587L458.649 646.961M458.649 646.961L546.829 646.302M546.187 693.706L633.464 681.512M546.187 693.706L541.913 739.776M546.187 693.706L548.71 645.915M446.348 740.499L541.913 739.776M446.348 740.499L438.997 784.393M541.913 739.776L535.973 783.642M541.913 739.776L631.372 727.275M438.997 784.393L535.973 783.642M535.973 783.642L626.731 770.974M535.973 783.642L528.386 824.917M528.386 824.917L619.598 812.196M528.386 824.917L519.228 863.181M519.228 863.181L508.63 898.084M519.228 863.181L610.006 850.509M508.63 898.084L496.639 929.272M508.63 898.084L598.073 885.606M496.639 929.272L483.397 956.453M496.639 929.272L583.92 917.098M483.397 956.453L469.032 979.358M483.397 956.453L567.671 944.696M469.032 979.358L453.681 997.778M469.032 979.358L549.472 968.128M453.681 997.778L437.492 1011.54M453.681 997.778L529.523 987.192M437.492 1011.54L420.63 1020.47M437.492 1011.54L508.006 1001.69M351.733 1021L420.63 1020.47M403.232 1024.54L420.63 1020.47M403.232 1024.54L461.091 1016.46L485.114 1011.47M420.63 1020.47L485.114 1011.47M485.114 1011.47L508.006 1001.69M485.114 1011.47L542.742 994.332L570.988 982.958M508.006 1001.69L529.523 987.192M508.006 1001.69L570.988 982.958M529.523 987.192L549.472 968.128M529.523 987.192L597.285 967.033M549.472 968.128L567.671 944.696M549.472 968.128L621.352 946.757M567.671 944.696L583.92 917.098M567.671 944.696L642.959 922.3M583.92 917.098L598.073 885.606M583.92 917.098L661.895 893.906M598.073 885.606L610.006 850.509M598.073 885.606L678.009 861.828M619.598 812.196L626.731 770.974M619.598 812.196L701.078 787.959M619.598 812.196L610.006 850.509M610.006 850.509L691.109 826.41M626.731 770.974L631.372 727.275M626.731 770.974L707.831 746.856M631.372 727.275L633.464 681.512M631.372 727.275L711.293 703.52M633.464 681.512L632.98 634.139M633.464 681.512L711.443 658.34M548.71 645.915L549.49 596.826M548.71 645.915L632.98 634.139M549.49 596.826L629.93 585.596M549.49 596.826L548.506 546.928M629.93 585.596L624.348 536.342M629.93 585.596L701.81 564.225M629.93 585.596L632.98 634.139M632.98 634.139L708.272 611.762M548.506 546.928L624.348 536.342M548.506 546.928L545.781 496.721M624.348 536.342L616.294 486.869M624.348 536.342L692.114 516.202M545.781 496.721L616.294 486.869M545.781 496.721L541.304 446.653M616.294 486.869L605.807 437.655M616.294 486.869L679.276 468.139M541.304 446.653L605.807 437.655M605.807 437.655L593.04 389.152M605.807 437.655L663.435 420.512M593.04 389.152L578.075 341.851M593.04 389.152L644.725 373.779M578.075 341.851L561.064 296.203M578.075 341.851L623.339 328.386M542.197 252.635L561.064 296.203M542.197 252.635L521.644 211.577M542.197 252.635L573.384 243.363M561.064 296.203L599.489 284.773M521.644 211.577L499.585 173.416M521.644 211.577L545.286 204.546M499.585 173.416L476.24 138.529M499.585 173.416L515.473 168.689M476.24 138.529L484.223 136.156M484.223 136.156L515.473 168.689M484.223 136.156L490.96 132.743M515.473 168.689L545.286 204.546M515.473 168.689L528.852 161.892M545.286 204.546L565.221 194.438M545.286 204.546L573.384 243.363M573.384 243.363L599.489 284.773M573.384 243.363L599.65 230.032M599.489 284.773L623.339 328.386M599.489 284.773L631.835 268.371M623.339 328.386L661.47 309.054M623.339 328.386L644.725 373.779M644.725 373.779L688.254 351.699M644.725 373.779L663.435 420.512M663.435 420.512L711.963 395.907M663.435 420.512L679.276 468.139M679.276 468.139L732.327 441.248M679.276 468.139L692.114 516.202M692.114 516.202L749.169 487.253M692.114 516.202L701.81 564.225M701.81 564.225L762.327 533.533M701.81 564.225L708.272 611.762M708.272 611.762L771.681 579.605M708.272 611.762L711.443 658.34M711.443 658.34L777.121 625.029M711.443 658.34L711.293 703.52M711.293 703.52L707.831 746.856M711.293 703.52L778.621 669.384M707.831 746.856L701.078 787.959M707.831 746.856L776.131 712.237M701.078 787.959L691.109 826.41M701.078 787.959L769.703 753.152M691.109 826.41L678.009 861.828M691.109 826.41L759.406 791.772M678.009 861.828L661.895 893.906M678.009 861.828L745.318 827.696M661.895 893.906L642.959 922.3M661.895 893.906L727.573 860.595M642.959 922.3L621.352 946.757M642.959 922.3L706.353 890.167M621.352 946.757L597.285 967.033M621.352 946.757L679.479 917.278M597.285 967.033L570.988 982.958M597.285 967.033L654.344 938.104M570.988 982.958L624.054 956.043L654.344 938.104M654.344 938.104L679.479 917.278M679.479 917.278L681.869 916.066M679.479 917.278L685.22 912.52M681.869 916.066L685.22 912.52M681.869 916.066L728.737 877.23L755.448 849.478M706.353 890.167L727.573 860.595M706.353 890.167L755.448 849.478M706.353 890.167L685.22 912.52M727.573 860.595L745.318 827.696M727.573 860.595L778.416 818.475M745.318 827.696L759.406 791.772M745.318 827.696L797.42 784.53M759.406 791.772L769.703 753.152M759.406 791.772L812.285 747.96M769.703 753.152L776.131 712.237M769.703 753.152L822.841 709.125M776.131 712.237L778.621 669.384M776.131 712.237L829.01 668.425M777.121 625.029L771.681 579.605M777.121 625.029L827.964 582.91M777.121 625.029L778.621 669.384M778.621 669.384L830.719 626.198M771.681 579.605L762.327 533.533M771.681 579.605L820.757 538.921M762.327 533.533L749.169 487.253M762.327 533.533L809.176 494.702M749.169 487.253L732.327 441.248M749.169 487.253L793.344 450.65M732.327 441.248L711.963 395.907M732.327 441.248L773.391 407.205M711.963 395.907L688.254 351.699M711.963 395.907L749.525 364.788M688.254 351.699L661.47 309.054M688.254 351.699L721.966 323.778M661.47 309.054L631.835 268.371M661.47 309.054L690.984 284.605M631.835 268.371L599.65 230.032M631.835 268.371L656.873 247.613M565.221 194.438L528.852 161.892M565.221 194.438L580.643 181.662M565.221 194.438L599.65 230.032M599.65 230.032L619.977 213.194M528.852 161.892L490.96 132.743M528.852 161.892L539.235 153.311M490.96 132.743L496.156 128.429M496.156 128.429L539.235 153.311M496.156 128.429L499.644 123.376M539.235 153.311L580.643 181.662M539.235 153.311L546.179 143.251M580.643 181.662L590.98 166.68M580.643 181.662L619.977 213.194M619.977 213.194L656.873 247.613M619.977 213.194L633.599 193.453M656.873 247.613L690.984 284.605M656.873 247.613L673.661 223.319M690.984 284.605L721.966 323.778M690.984 284.605L710.757 255.958M721.966 323.778L744.558 291.054M721.966 323.778L749.525 364.788M749.525 364.788L773.391 407.205M749.525 364.788L774.701 328.318M773.391 407.205L800.921 367.341M773.391 407.205L793.344 450.65M793.344 450.65L822.946 407.792M793.344 450.65L809.176 494.702M809.176 494.702L820.757 538.921M809.176 494.702L840.585 449.228M820.757 538.921L827.964 582.91M820.757 538.921L853.641 491.285M827.964 582.91L830.719 626.198M827.964 582.91L862.029 533.554M830.719 626.198L829.01 668.425M830.719 626.198L865.628 575.638M829.01 668.425L822.841 709.125M829.01 668.425L864.431 617.113M822.841 709.125L812.285 747.96M822.841 709.125L858.436 657.575L864.431 617.113M812.285 747.96L797.42 784.53M812.285 747.96L847.706 696.648M797.42 784.53L778.416 818.475M797.42 784.53L832.345 733.946M778.416 818.475L755.448 849.478M778.416 818.475L812.481 769.12L832.345 733.946M685.22 912.52L698.519 901.501M832.345 733.946L847.706 696.648M847.706 696.648L864.314 639.793L875.128 600.44L881.039 560.258M864.431 617.113L865.628 575.638M864.431 617.113L881.039 560.258M865.628 575.638L862.029 533.554M865.628 575.638L882 519.599M862.029 533.554L853.641 491.285M862.029 533.554L878.001 478.911M853.641 491.285L840.585 449.228M853.641 491.285L869.068 438.512M822.946 407.792L800.921 367.341M822.946 407.792L836.831 360.289M822.946 407.792L840.585 449.228M840.585 449.228L855.292 398.847M800.921 367.341L774.701 328.318M800.921 367.341L813.819 323.193M744.558 291.054L710.757 255.958M744.558 291.054L755.145 254.82M744.558 291.054L774.701 328.318M774.701 328.318L786.495 287.935M710.757 255.958L673.661 223.319M710.757 255.958L720.046 224.215M673.661 223.319L633.599 193.453M673.661 223.319L681.533 196.374M590.98 166.68L546.179 143.251M590.98 166.68L595.813 150.103M590.98 166.68L633.599 193.453M633.599 193.453L639.994 171.603M546.179 143.251L499.644 123.376M546.179 143.251L549.422 132.108M499.644 123.376L501.28 117.776M501.28 117.776L549.422 132.108M549.422 132.108L595.813 150.103M595.813 150.103L639.994 171.603M639.994 171.603L681.533 196.374M681.533 196.374L720.046 224.215M720.046 224.215L755.145 254.82M755.145 254.82L786.495 287.935M786.495 287.935L813.819 323.193M813.819 323.193L836.831 360.289M836.831 360.289L855.292 398.847M855.292 398.847L869.068 438.512M855.292 398.847L852.789 345.503M869.068 438.512L878.001 478.911M878.001 478.911L875.27 421.026M882 519.599L881.039 560.258M882 519.599L879.218 460.29L875.27 421.026" stroke="#FFC700" stroke-linecap="round" stroke-linejoin="round"/>
</svg>
