<svg width="842" height="999" viewBox="0 0 842 999" fill="none" xmlns="http://www.w3.org/2000/svg">
<path opacity="0.1" d="M460.008 111.846L457.815 105.818M460.008 111.846L507.871 120.31M460.008 111.846L410.839 107.251M460.008 111.846L460.28 117.776M457.815 105.818L503.517 108.308M457.815 105.818L453.809 99.9195M457.815 105.818L410.839 107.251M507.871 120.31L503.517 108.308M507.871 120.31L553.985 132.549M507.871 120.31L508.422 132.108M503.517 108.308L547.514 114.692M503.517 108.308L495.556 96.5647M553.985 132.549L547.514 114.692M553.985 132.549L554.813 150.103M553.985 132.549L597.9 148.445M547.514 114.692L535.664 97.2198M547.514 114.692L589.371 124.914M597.9 148.445L589.371 124.914M597.9 148.445L639.188 167.872M597.9 148.445L598.994 171.603M589.371 124.914L628.681 138.872M589.371 124.914L573.726 101.883M639.188 167.872L628.681 138.872M639.188 167.872L677.457 190.61M639.188 167.872L640.533 196.374M628.681 138.872L665.076 156.438M628.681 138.872L609.409 110.503M677.457 190.61L665.076 156.438M677.457 190.61L712.323 216.453M677.457 190.61L679.046 224.215M665.076 156.438L698.193 177.427M665.076 156.438L642.353 123.001M712.323 216.453L698.193 177.427M712.323 216.453L743.492 245.159M712.323 216.453L714.145 254.82M698.193 177.427L727.714 201.662M698.193 177.427L672.27 139.253M743.492 245.159L727.714 201.662M743.492 245.159L770.603 276.439M743.492 245.159L745.495 287.935M727.714 201.662L753.383 228.894M727.714 201.662L698.825 159.107M770.603 276.439L753.383 228.894M770.603 276.439L793.451 309.991M770.603 276.439L772.819 323.193M753.383 228.894L774.925 258.855M753.383 228.894L721.796 182.368L698.825 159.107M793.451 309.991L774.925 258.855M793.451 309.991L811.789 345.503M793.451 309.991L795.831 360.289M774.925 258.855L792.119 291.268L804.84 325.815L825.43 382.649M825.43 382.649L834.27 421.026M825.43 382.649L811.789 345.503M825.43 382.649L828.068 438.512M698.825 159.107L672.27 139.253M698.825 159.107L657.89 119.118L636.007 103.835M672.27 139.253L642.353 123.001M672.27 139.253L636.007 103.835M642.353 123.001L609.409 110.503M642.353 123.001L610.2 91.583M609.409 110.503L573.726 101.883M609.409 110.503L582.119 83.8474M535.664 97.2198L495.556 96.5647M535.664 97.2198L518.855 80.8047M535.664 97.2198L573.726 101.883M573.726 101.883L551.574 80.2429M495.556 96.5647L453.809 99.9195M495.556 96.5647L484.265 85.5312M453.809 99.9195L410.839 107.251M453.809 99.9195L448.137 94.3757M410.839 107.251L448.137 94.3757M410.839 107.251L441.026 89.4012M410.839 107.251L423.569 81.903M410.839 107.251L432.719 85.1926M410.839 107.251L413.908 79.6627M410.839 107.251L404.117 78.5586M410.839 107.251L394.568 78.6312M410.839 107.251L385.626 79.8786M410.839 107.251L370.907 85.6664M410.839 107.251L377.644 82.254M410.839 107.251L365.71 89.9784M410.839 107.251L362.223 95.0336M410.839 107.251L360.586 100.631M410.839 107.251L363.051 112.589M410.839 107.251L360.858 106.561M410.839 107.251L367.057 118.488M410.839 107.251L372.729 124.032M410.839 107.251L379.84 129.006M410.839 107.251L388.148 133.217M410.839 107.251L397.298 136.507M410.839 107.251L406.959 138.747M410.839 107.251L416.75 139.851M410.839 107.251L426.298 139.778M410.839 107.251L435.24 138.529M410.839 107.251L443.223 136.156M410.839 107.251L449.96 132.743M410.839 107.251L455.156 128.429M410.839 107.251L458.644 123.376M410.839 107.251L460.28 117.776M448.137 94.3757L484.265 85.5312M448.137 94.3757L441.026 89.4012M484.265 85.5312L518.855 80.8047M484.265 85.5312L470.074 75.6383M518.855 80.8047L551.574 80.2429M518.855 80.8047L497.765 66.0778M551.574 80.2429L582.119 83.8474M551.574 80.2429L523.775 60.8264M582.119 83.8474L610.2 91.583M582.119 83.8474L547.873 59.9301M610.2 91.583L634.979 103.117M610.2 91.583L569.837 63.3959M636.007 103.835L635.539 103.378L634.979 103.117M636.007 103.835L634.979 103.117M634.979 103.117L606.519 83.2405L589.439 71.1942L569.837 63.3959M569.837 63.3959L547.873 59.9301M569.837 63.3959L522.801 39.5235M547.873 59.9301L523.775 60.8264M547.873 59.9301L507.972 39.6733M523.775 60.8264L497.765 66.0778M523.775 60.8264L491.372 44.3831M497.765 66.0778L470.074 75.6383M497.765 66.0778L473.176 53.6053M470.074 75.6383L441.026 89.4012M470.074 75.6383L453.566 67.2515M441.026 89.4012L432.719 85.1926M432.719 85.1926L423.569 81.903M432.719 85.1926L453.566 67.2515M453.566 67.2515L473.176 53.6053M453.566 67.2515L435.354 60.7049M473.176 53.6053L491.372 44.3831M473.176 53.6053L446.077 43.8628M491.372 44.3831L507.972 39.6733M491.372 44.3831L455.628 31.5422M507.972 39.6733L522.801 39.5235M507.972 39.6733L463.931 23.8563M522.801 39.5235L470.919 20.8791M470.919 20.8791L463.931 23.8563M470.919 20.8791L416.16 8.18696M470.919 20.8791L476.499 22.6423M463.931 23.8563L455.628 31.5422M463.931 23.8563L417.492 13.0823M455.628 31.5422L446.077 43.8628M455.628 31.5422L417.917 22.7966M446.077 43.8628L435.354 60.7049M446.077 43.8628L417.455 37.2327M423.569 81.903L435.354 60.7049M423.569 81.903L413.908 79.6627M435.354 60.7049L416.118 56.2489M413.908 79.6627L416.118 56.2489M413.908 79.6627L404.117 78.5586M416.118 56.2489L417.455 37.2327M416.118 56.2489L396.639 54.0478M417.455 37.2327L417.917 22.7966M417.455 37.2327L388.455 33.9609M417.917 22.7966L417.492 13.0823M417.917 22.7966L379.685 18.4854M417.492 13.0823L416.16 8.18696M417.492 13.0823L370.4 7.77024M416.16 8.18696L360.663 1.92388M360.663 1.92388L370.4 7.77024M360.663 1.92388L306.522 2.3398M360.663 1.92388L350.585 1L288.774 1.47385M370.4 7.77024L379.685 18.4854M370.4 7.77024L324.456 8.12518M379.685 18.4854L388.455 33.9609M379.685 18.4854L342.4 18.7708M388.455 33.9609L396.639 54.0478M388.455 33.9609L360.174 34.1788M404.117 78.5586L394.568 78.6312M404.117 78.5586L396.639 54.0478M396.639 54.0478L377.623 54.1947M394.568 78.6312L377.623 54.1947M394.568 78.6312L385.626 79.8786M377.623 54.1947L360.174 34.1788M377.623 54.1947L359.837 56.6772M360.174 34.1788L342.4 18.7708M360.174 34.1788L333.701 37.8742M342.4 18.7708L324.456 8.12518M342.4 18.7708L307.496 23.6427M324.456 8.12518L306.522 2.3398M324.456 8.12518L281.455 14.129M306.522 2.3398L288.774 1.47385M306.522 2.3398L255.856 9.41275M288.774 1.47385L230.915 9.55114M230.915 9.55114L255.856 9.41275M230.915 9.55114L179.211 24.926M230.915 9.55114L206.892 14.5368L149.262 31.6715M255.856 9.41275L281.455 14.129M281.455 14.129L307.496 23.6427M281.455 14.129L243.048 25.5488M307.496 23.6427L333.701 37.8742M307.496 23.6427L276.31 32.9168M333.701 37.8742L359.837 56.6772M333.701 37.8742L310.039 44.9094M359.837 56.6772L385.626 79.8786M359.837 56.6772L343.929 61.4063M385.626 79.8786L377.644 82.254M377.644 82.254L343.929 61.4063M377.644 82.254L370.907 85.6664M343.929 61.4063L310.039 44.9094M343.929 61.4063L330.548 68.1938M310.039 44.9094L276.31 32.9168M310.039 44.9094L290.123 55.0092M276.31 32.9168L243.048 25.5488M276.31 32.9168L250.041 46.2346M243.048 25.5488L210.572 22.8774M243.048 25.5488L210.702 41.9511M179.211 24.926L149.262 31.6715M179.211 24.926L210.572 22.8774M179.211 24.926L135.68 46.9987M149.262 31.6715L121.017 43.052L67.9682 69.9527M149.262 31.6715L100.734 56.277M67.9682 69.9527L100.734 56.277M67.9682 69.9527L26.8831 103.987M67.9682 69.9527L37.6588 87.8961L-6.51523 124.503M100.734 56.277L135.68 46.9987M100.734 56.277L63.175 87.4069M210.572 22.8774L172.461 42.2072M135.68 46.9987L172.461 42.2072M135.68 46.9987L101.97 74.9289M172.461 42.2072L210.702 41.9511M172.461 42.2072L142.929 66.6699M210.702 41.9511L250.041 46.2346M210.702 41.9511L185.643 62.7078M250.041 46.2346L290.123 55.0092M250.041 46.2346L229.716 63.0799M290.123 55.0092L330.548 68.1938M290.123 55.0092L274.702 67.7888M370.907 85.6664L330.548 68.1938M370.907 85.6664L365.71 89.9784M330.548 68.1938L320.168 76.7865M365.71 89.9784L320.168 76.7865M365.71 89.9784L362.223 95.0336M320.168 76.7865L274.702 67.7888M320.168 76.7865L313.224 86.8462M274.702 67.7888L229.716 63.0799M274.702 67.7888L264.362 82.7576M229.716 63.0799L185.643 62.7078M229.716 63.0799L216.092 82.8135M185.643 62.7078L142.929 66.6699M185.643 62.7078L168.877 87.0132M142.929 66.6699L101.97 74.9289M142.929 66.6699L123.156 95.3172M101.97 74.9289L63.175 87.4069M101.97 74.9289L79.3954 107.64M63.175 87.4069L26.8831 103.987M63.175 87.4069L37.9967 123.869M26.8831 103.987L-6.51523 124.503M26.8831 103.987L-0.627853 143.846M-6.51523 124.503L-36.7162 148.76M-6.51523 124.503L-36.1141 167.377M-36.7162 148.76L-63.4434 176.529L-96.3282 224.168M-36.7162 148.76L-68.1175 194.238M-96.3282 224.168L-68.1175 194.238M-96.3282 224.168L-111.748 276.939M-96.3282 224.168L-120.476 256.879M-68.1175 194.238L-36.1141 167.377M-68.1175 194.238L-82.8384 244.612M-36.1141 167.377L-0.627853 143.846M-36.1141 167.377L-50.0007 214.872M-0.627853 143.846L37.9967 123.869M-0.627853 143.846L-13.5256 187.998M37.9967 123.869L79.3954 107.64M37.9967 123.869L26.1841 164.26M79.3954 107.64L123.156 95.3172M79.3954 107.64L68.8088 143.876M123.156 95.3172L168.877 87.0132M123.156 95.3172L113.885 127.048M168.877 87.0132L216.092 82.8135M168.877 87.0132L161.002 113.94M216.092 82.8135L264.362 82.7576M216.092 82.8135L209.699 104.673M264.362 82.7576L313.224 86.8462M264.362 82.7576L259.53 99.3366M362.223 95.0336L313.224 86.8462M362.223 95.0336L360.586 100.631M313.224 86.8462L309.98 97.9851M360.586 100.631L309.98 97.9851M360.586 100.631L360.858 106.561M309.98 97.9851L259.53 99.3366M309.98 97.9851L310.532 109.785M259.53 99.3366L209.699 104.673M259.53 99.3366L260.358 116.892M209.699 104.673L161.002 113.94M209.699 104.673L210.79 127.818M161.002 113.94L113.885 127.048M161.002 113.94L162.349 142.45M113.885 127.048L68.8088 143.876M113.885 127.048L115.473 160.65M68.8088 143.876L26.1841 164.26M68.8088 143.876L70.6111 182.245M26.1841 164.26L-13.5256 187.998M26.1841 164.26L28.2052 207.027M-13.5256 187.998L-50.0007 214.872M-13.5256 187.998L-11.3295 234.752M-50.0007 214.872L-47.6226 265.158M-50.0007 214.872L-82.8384 244.612M-82.8384 244.612L-80.321 297.957M-82.8384 244.612L-111.748 276.939M-111.748 276.939L-109.115 332.807M-111.748 276.939L-136.451 311.537M-120.476 256.879L-136.451 311.537M-120.476 256.879L-140.329 292.065M-136.451 311.537L-156.701 348.084M-136.451 311.537L-133.718 369.422M-140.329 292.065L-156.701 348.084M-140.329 292.065L-155.7 329.365L-166.432 368.438M-156.701 348.084L-172.312 386.201M-156.701 348.084L-153.905 407.39M-189.039 465.757L-190 506.395L-187.2 565.721M-189.039 465.757L-183.126 425.554M-189.039 465.757L-186.199 525.944M-187.2 565.721L-186.199 525.944M-187.2 565.721L-165.337 626.053M-187.2 565.721L-183.264 604.987M-183.126 425.554L-172.312 386.201M-183.126 425.554L-180.271 486.041M-186.199 525.944L-180.271 486.041M-186.199 525.944L-164.017 587.159M-172.312 386.201L-169.472 446.388M-180.271 486.041L-169.472 446.388M-180.271 486.041L-157.98 547.557M-169.472 446.388L-153.905 407.39M-169.472 446.388L-147.286 507.623M-153.905 407.39L-133.718 369.422M-153.905 407.39L-132.042 467.722M-109.115 332.807L-80.321 297.957M-109.115 332.807L-88.5191 389.641M-109.115 332.807L-133.718 369.422M-133.718 369.422L-112.388 428.286M-80.321 297.957L-47.6226 265.158M-80.321 297.957L-60.6645 352.195M-47.6226 265.158L-11.3295 234.752M-47.6226 265.158L-29.0938 316.308M28.2052 207.027L-11.3295 234.752M28.2052 207.027L70.6111 182.245M28.2052 207.027L43.9621 250.516M-11.3295 234.752L5.91113 282.301M70.6111 182.245L115.473 160.65M70.6111 182.245L84.7604 221.269M115.473 160.65L162.349 142.45M115.473 160.65L127.855 194.826M162.349 142.45L210.79 127.818M162.349 142.45L172.855 171.448M210.79 127.818L260.358 116.892M210.79 127.818L219.322 151.36M260.358 116.892L310.532 109.785M260.358 116.892L266.829 134.749M310.532 109.785L360.858 106.561M310.532 109.785L314.886 121.787M360.858 106.561L363.051 112.589M363.051 112.589L314.886 121.787M363.051 112.589L367.057 118.488M314.886 121.787L266.829 134.749M314.886 121.787L322.846 133.53M266.829 134.749L219.322 151.36M266.829 134.749L278.68 152.224M219.322 151.36L172.855 171.448M219.322 151.36L234.967 174.392M172.855 171.448L127.855 194.826M172.855 171.448L192.128 199.819M127.855 194.826L84.7604 221.269M127.855 194.826L150.557 228.261M84.7604 221.269L43.9621 250.516M84.7604 221.269L110.685 259.451M43.9621 250.516L5.91113 282.301M43.9621 250.516L72.874 293.086M5.91113 282.301L-29.0938 316.308M5.91113 282.301L37.4985 328.827M-29.0938 316.308L4.89849 366.36M-29.0938 316.308L-60.6645 352.195M-60.6645 352.195L-24.6195 405.281M-60.6645 352.195L-88.5191 389.641M-88.5191 389.641L-50.7584 445.263M-88.5191 389.641L-112.388 428.286M-112.388 428.286L-73.2779 485.875M-112.388 428.286L-132.042 467.722M-132.042 467.722L-91.9549 526.766M-132.042 467.722L-147.286 507.623M-147.286 507.623L-106.613 567.517M-147.286 507.623L-157.98 547.557M-157.98 547.557L-164.017 587.159M-157.98 547.557L-117.111 607.734M-164.017 587.159L-165.337 626.053M-164.017 587.159L-123.344 647.053M-165.337 626.053L-161.934 663.852M-165.337 626.053L-125.254 685.077M-183.264 604.987L-161.934 663.852M-183.264 604.987L-174.428 643.365L-160.779 680.49L-154.148 698.791M-161.934 663.852L-154.148 698.791M-161.934 663.852L-122.824 721.44M-154.148 698.791L-153.413 700.819M-154.148 698.791L-153.834 700.199L-153.413 700.819M-153.413 700.819L-141.119 734.747M-153.413 700.819L-116.077 755.802M-141.119 734.747L-123.911 767.157L-89.9286 817.191M-141.119 734.747L-105.074 787.833M-89.9286 817.191L-105.074 787.833M-89.9286 817.191L-41.8036 864.212M-89.9286 817.191L-70.7804 843.644L-47.8155 866.905L-6.88684 906.9L44.4941 942.761M-105.074 787.833L-116.077 755.802M-105.074 787.833L-54.0315 837.689M-116.077 755.802L-122.824 721.44M-116.077 755.802L-62.6015 808.047M-122.824 721.44L-125.254 685.077M-122.824 721.44L-67.4363 775.555M-125.254 685.077L-123.344 647.053M-125.254 685.077L-68.4856 740.545M-123.344 647.053L-117.111 607.734M-123.344 647.053L-65.7396 703.338M-106.613 567.517L-91.9549 526.766M-106.613 567.517L-49.0146 623.783M-106.613 567.517L-117.111 607.734M-117.111 607.734L-59.2312 664.286M-91.9549 526.766L-73.2779 485.875M-91.9549 526.766L-35.1864 582.233M-73.2779 485.875L-50.7584 445.263M-73.2779 485.875L-17.8921 539.99M-50.7584 445.263L-24.6195 405.281M-50.7584 445.263L2.71359 497.509M-24.6195 405.281L4.89849 366.36M-24.6195 405.281L26.4347 455.154M4.89849 366.36L37.4985 328.827M4.89849 366.36L53.0214 413.362M37.4985 328.827L72.874 293.086M37.4985 328.827L82.2352 372.544M72.874 293.086L110.685 259.451M72.874 293.086L113.806 333.059M150.557 228.261L192.128 199.819M150.557 228.261L182.709 259.675M150.557 228.261L110.685 259.451M110.685 259.451L147.396 295.322M192.128 199.819L234.967 174.392M192.128 199.819L219.397 226.473M234.967 174.392L278.68 152.224M234.967 174.392L257.118 196.031M278.68 152.224L322.846 133.53M278.68 152.224L295.488 168.639M367.057 118.488L322.846 133.53M367.057 118.488L372.729 124.032M322.846 133.53L334.138 144.564M372.729 124.032L334.138 144.564M372.729 124.032L379.84 129.006M334.138 144.564L295.488 168.639M334.138 144.564L348.328 154.459M295.488 168.639L257.118 196.031M295.488 168.639L316.579 183.366M257.118 196.031L219.397 226.473M257.118 196.031L284.917 215.446M219.397 226.473L182.709 259.675M219.397 226.473L253.665 250.398M182.709 259.675L223.096 287.877M182.709 259.675L147.396 295.322M147.396 295.322L193.499 327.521M147.396 295.322L113.806 333.059M113.806 333.059L165.178 368.943M113.806 333.059L82.2352 372.544M82.2352 372.544L138.418 411.762M82.2352 372.544L53.0214 413.362M53.0214 413.362L113.436 455.548M53.0214 413.362L26.4347 455.154M26.4347 455.154L90.5105 499.901M26.4347 455.154L2.71359 497.509M2.71359 497.509L69.8542 544.373M2.71359 497.509L-17.8921 539.99M-17.8921 539.99L51.6428 588.543M-17.8921 539.99L-35.1864 582.233M-35.1864 582.233L36.0915 631.984M-35.1864 582.233L-49.0146 623.783M-49.0146 623.783L23.3025 674.27M-49.0146 623.783L-59.2312 664.286M-59.2312 664.286L-65.7396 703.338M-59.2312 664.286L13.4349 715.024M-65.7396 703.338L-68.4856 740.545M-65.7396 703.338L6.57562 753.825M-68.4856 740.545L-67.4363 775.555M-68.4856 740.545L2.78261 790.297M-67.4363 775.555L-62.6015 808.047M-67.4363 775.555L2.10055 824.108M-62.6015 808.047L-54.0315 837.689M-62.6015 808.047L4.52941 854.913M-54.0315 837.689L-41.8036 864.212M-54.0315 837.689L10.054 882.433M-41.8036 864.212L-26.0358 887.359L30.1357 926.579M-41.8036 864.212L18.6164 906.397M44.4941 942.761L30.1357 926.579M44.4941 942.761L104.349 973.159M44.4941 942.761L61.5608 954.808L115.263 982.068M30.1357 926.579L18.6164 906.397M30.1357 926.579L95.5681 959.79M18.6164 906.397L10.054 882.433M18.6164 906.397L89.015 942.122M10.054 882.433L4.52941 854.913M10.054 882.433L84.7256 920.329M4.52941 854.913L2.10055 824.108M4.52941 854.913L82.7437 894.626M2.10055 824.108L2.78261 790.297M2.10055 824.108L83.1134 865.225M6.57562 753.825L2.78261 790.297M6.57562 753.825L13.4349 715.024M6.57562 753.825L90.8214 796.581M2.78261 790.297L85.817 832.433M13.4349 715.024L23.3025 674.27M13.4349 715.024L98.0937 757.998M23.3025 674.27L36.0915 631.984M23.3025 674.27L107.547 717.046M36.0915 631.984L51.6428 588.543M36.0915 631.984L119.101 674.125M51.6428 588.543L69.8542 544.373M51.6428 588.543L132.662 629.659M69.8542 544.373L90.5105 499.901M69.8542 544.373L148.053 584.069M90.5105 499.901L113.436 455.548M90.5105 499.901L165.184 537.797M113.436 455.548L138.418 411.762M113.436 455.548L183.84 491.271M138.418 411.762L165.178 368.943M138.418 411.762L203.857 444.971M165.178 368.943L193.499 327.521M165.178 368.943L225.038 399.32M193.499 327.521L223.096 287.877M193.499 327.521L247.216 354.777M223.096 287.877L253.665 250.398M223.096 287.877L270.11 311.744M253.665 250.398L284.917 215.446M253.665 250.398L293.567 270.657M284.917 215.446L316.579 183.366M284.917 215.446L317.321 231.893M316.579 183.366L348.328 154.459M316.579 183.366L341.148 195.842M379.84 129.006L388.148 133.217M379.84 129.006L348.328 154.459M348.328 154.459L364.836 162.844M388.148 133.217L364.836 162.844M388.148 133.217L397.298 136.507M364.836 162.844L341.148 195.842M364.836 162.844L383.067 169.386M341.148 195.842L368.266 205.577M341.148 195.842L317.321 231.893M317.321 231.893L293.567 270.657M317.321 231.893L353.067 244.741M293.567 270.657L270.11 311.744M293.567 270.657L337.587 286.47M270.11 311.744L322.011 330.38M270.11 311.744L247.216 354.777M247.216 354.777L306.457 376.065M247.216 354.777L225.038 399.32M225.038 399.32L291.089 423.045M225.038 399.32L203.857 444.971M203.857 444.971L276.045 470.909M203.857 444.971L183.84 491.271M183.84 491.271L261.489 519.177M183.84 491.271L165.184 537.797M165.184 537.797L247.546 567.379M165.184 537.797L148.053 584.069M148.053 584.069L234.345 615.065M148.053 584.069L132.662 629.659M132.662 629.659L119.101 674.125M132.662 629.659L222.036 661.779M119.101 674.125L107.547 717.046M119.101 674.125L210.721 707.035M107.547 717.046L98.0937 757.998M107.547 717.046L200.502 750.449M98.0937 757.998L90.8214 796.581M98.0937 757.998L191.485 791.554M90.8214 796.581L85.817 832.433M90.8214 796.581L183.777 829.984M85.817 832.433L83.1134 865.225M85.817 832.433L177.418 865.348M83.1134 865.225L82.7437 894.626M83.1134 865.225L172.488 897.345M82.7437 894.626L84.7256 920.329M82.7437 894.626L169.036 925.622M84.7256 920.329L89.015 942.122M84.7256 920.329L167.091 949.931M89.015 942.122L95.5681 959.79M89.015 942.122L166.664 970.027M95.5681 959.79L104.349 973.159M95.5681 959.79L167.776 985.724M104.349 973.159L115.263 982.068M104.349 973.159L170.4 996.885M115.263 982.068L174.527 1003.37M174.527 1003.37L170.4 996.885M174.527 1003.37L180.083 1005.12L234.847 1017.83M170.4 996.885L167.776 985.724M170.4 996.885L240.085 1013.03M167.776 985.724L166.664 970.027M167.776 985.724L243.94 1003.39M166.664 970.027L167.091 949.931M166.664 970.027L248.603 989.026M167.091 949.931L169.036 925.622M167.091 949.931L253.997 970.07M169.036 925.622L172.488 897.345M169.036 925.622L260.083 946.727M172.488 897.345L177.418 865.348M172.488 897.345L266.786 919.214M177.418 865.348L183.777 829.984M177.418 865.348L274.073 887.763M183.777 829.984L191.485 791.554M183.777 829.984L281.851 852.713M200.502 750.449L210.537 707.817M200.502 750.449L200.33 751.233M191.485 791.554L200.33 751.233M191.485 791.554L290.03 814.408M210.721 707.035L221.842 662.558M210.721 707.035L210.537 707.817M234.345 615.065L247.546 567.379M234.345 615.065L234.141 615.841M222.036 661.779L234.141 615.841M222.036 661.779L221.842 662.558M247.546 567.379L261.489 519.177M247.546 567.379L334.455 587.537M261.489 519.177L276.045 470.909M261.489 519.177L343.428 538.175M276.045 470.909L291.089 423.045M276.045 470.909L352.233 488.586M291.089 423.045L306.457 376.065M291.089 423.045L360.779 439.211M306.457 376.065L322.011 330.38M306.457 376.065L368.967 390.556M322.011 330.38L337.587 286.47M322.011 330.38L376.751 343.077M337.587 286.47L353.067 244.741M337.587 286.47L384.044 297.234M368.266 205.577L383.067 169.386M368.266 205.577L396.869 212.217M368.266 205.577L353.067 244.741M353.067 244.741L390.773 253.468M383.067 169.386L397.298 136.507M383.067 169.386L402.284 173.846M397.298 136.507L406.959 138.747M406.959 138.747L402.284 173.846M406.959 138.747L416.75 139.851M402.284 173.846L396.869 212.217M402.284 173.846L421.783 176.043M396.869 212.217L425.868 215.481M396.869 212.217L390.773 253.468M390.773 253.468L384.044 297.234M390.773 253.468L429.006 257.781M384.044 297.234L376.751 343.077M384.044 297.234L431.156 302.548M376.751 343.077L432.27 349.347M376.751 343.077L368.967 390.556M368.967 390.556L432.352 397.713M368.967 390.556L360.779 439.211M360.779 439.211L360.676 439.805M352.233 488.586L352.129 489.173M352.233 488.586L360.676 439.805M343.428 538.175L343.321 538.763M343.428 538.175L352.129 489.173M334.455 587.537L334.346 588.124M334.455 587.537L343.321 538.763M232.464 615.452L234.141 615.841M234.141 615.841L323.515 636.576L325.284 636.775M220.155 662.166L221.842 662.558M221.842 662.558L314.453 684.036M208.84 707.423L210.537 707.817M210.537 707.817L305.475 729.842L307.257 730.043M198.62 750.837L200.33 751.233M200.33 751.233L296.695 773.566L298.455 773.764M290.03 814.408L281.851 852.713M290.03 814.408L298.455 773.764M290.03 814.408L389.945 825.663M281.851 852.713L274.073 887.763M281.851 852.713L381.276 863.948M274.073 887.763L266.786 919.214M274.073 887.763L372.068 898.827M266.786 919.214L260.083 946.727M266.786 919.214L362.395 929.982M260.083 946.727L253.997 970.07M260.083 946.727L352.385 957.144M253.997 970.07L248.603 989.026M253.997 970.07L342.117 980.014M248.603 989.026L243.94 1003.39M248.603 989.026L331.671 998.394M243.94 1003.39L240.085 1013.03M243.94 1003.39L321.171 1012.1M240.085 1013.03L237.037 1017.86L300.418 1025M240.085 1013.03L310.733 1021M300.418 1025L310.733 1021M300.418 1025L362.232 1024.54M321.171 1012.1L331.671 998.394M321.171 1012.1L396.492 1011.54M321.171 1012.1L310.733 1021M331.671 998.394L342.117 980.014M331.671 998.394L412.681 997.778M342.117 980.014L352.385 957.144M342.117 980.014L428.032 979.358M352.385 957.144L362.395 929.982M352.385 957.144L442.397 956.453M362.395 929.982L372.068 898.827M362.395 929.982L455.639 929.272M372.068 898.827L381.276 863.948M372.068 898.827L467.63 898.084M381.276 863.948L389.945 825.663M381.276 863.948L478.228 863.181M298.455 773.764L396.116 784.781M298.455 773.764L298.576 773.178L307.257 730.043M389.945 825.663L397.997 784.393M389.945 825.663L487.386 824.917M307.257 730.043L403.466 740.886M307.257 730.043L307.376 729.45L316.335 683.649M316.335 683.649L325.284 636.775M316.335 683.649L411.943 694.416M325.284 636.775L415.813 646.974L417.649 646.961M325.284 636.775L325.396 636.189L334.346 588.124M411.943 694.416L417.649 646.961M411.943 694.416L505.187 693.706M411.943 694.416L405.348 740.499M332.574 587.924L334.346 588.124M334.346 588.124L420.694 597.869L422.519 597.855M341.547 538.563L343.321 538.763M343.321 538.763L424.615 547.931L426.467 547.917M350.352 488.973L352.129 489.173M352.129 489.173L427.582 497.684L429.442 497.67M358.878 439.602L360.676 439.805M360.676 439.805L429.545 447.563L431.393 447.549M432.352 397.713L432.27 349.347M432.352 397.713L494.162 397.232M432.352 397.713L431.407 447.18L431.393 447.549M432.27 349.347L431.156 302.548M432.27 349.347L486.391 348.933M429.006 257.781L431.156 302.548M429.006 257.781L425.868 215.481M429.006 257.781L466.292 257.499M431.156 302.548L477.083 302.205M425.868 215.481L421.783 176.043M425.868 215.481L454.152 215.275M421.783 176.043L416.75 139.851M421.783 176.043L440.781 175.91M416.75 139.851L426.298 139.778M426.298 139.778L440.781 175.91M426.298 139.778L435.24 138.529M440.781 175.91L454.152 215.275M440.781 175.91L458.585 173.416M454.152 215.275L480.644 211.577M454.152 215.275L466.292 257.499M466.292 257.499L477.083 302.205M466.292 257.499L501.197 252.635M477.083 302.205L486.391 348.933M477.083 302.205L520.064 296.203M486.391 348.933L537.075 341.851M486.391 348.933L494.162 397.232M494.162 397.232L552.04 389.152M494.162 397.232L500.304 446.653M431.393 447.549L498.423 447.041M431.393 447.549L429.464 497.297L429.442 497.67M429.442 497.67L502.899 497.109M429.442 497.67L426.496 547.544L426.467 547.917M426.467 547.917L505.625 547.315M426.467 547.917L422.556 597.486L422.519 597.855M422.519 597.855L506.609 597.213M422.519 597.855L417.694 646.587L417.649 646.961M417.649 646.961L505.829 646.302M505.187 693.706L592.464 681.512M505.187 693.706L500.913 739.776M505.187 693.706L507.71 645.915M405.348 740.499L500.913 739.776M405.348 740.499L397.997 784.393M500.913 739.776L494.973 783.642M500.913 739.776L590.372 727.275M397.997 784.393L494.973 783.642M494.973 783.642L585.731 770.974M494.973 783.642L487.386 824.917M487.386 824.917L578.598 812.196M487.386 824.917L478.228 863.181M478.228 863.181L467.63 898.084M478.228 863.181L569.006 850.509M467.63 898.084L455.639 929.272M467.63 898.084L557.073 885.606M455.639 929.272L442.397 956.453M455.639 929.272L542.92 917.098M442.397 956.453L428.032 979.358M442.397 956.453L526.671 944.696M428.032 979.358L412.681 997.778M428.032 979.358L508.472 968.128M412.681 997.778L396.492 1011.54M412.681 997.778L488.523 987.192M396.492 1011.54L379.63 1020.47M396.492 1011.54L467.006 1001.69M310.733 1021L379.63 1020.47M362.232 1024.54L379.63 1020.47M362.232 1024.54L420.091 1016.46L444.114 1011.47M379.63 1020.47L444.114 1011.47M444.114 1011.47L467.006 1001.69M444.114 1011.47L501.742 994.332L529.988 982.958M467.006 1001.69L488.523 987.192M467.006 1001.69L529.988 982.958M488.523 987.192L508.472 968.128M488.523 987.192L556.285 967.033M508.472 968.128L526.671 944.696M508.472 968.128L580.352 946.757M526.671 944.696L542.92 917.098M526.671 944.696L601.959 922.3M542.92 917.098L557.073 885.606M542.92 917.098L620.895 893.906M557.073 885.606L569.006 850.509M557.073 885.606L637.009 861.828M578.598 812.196L585.731 770.974M578.598 812.196L660.078 787.959M578.598 812.196L569.006 850.509M569.006 850.509L650.109 826.41M585.731 770.974L590.372 727.275M585.731 770.974L666.831 746.856M590.372 727.275L592.464 681.512M590.372 727.275L670.293 703.52M592.464 681.512L591.98 634.139M592.464 681.512L670.443 658.34M507.71 645.915L508.49 596.826M507.71 645.915L591.98 634.139M508.49 596.826L588.93 585.596M508.49 596.826L507.506 546.928M588.93 585.596L583.348 536.342M588.93 585.596L660.81 564.225M588.93 585.596L591.98 634.139M591.98 634.139L667.272 611.762M507.506 546.928L583.348 536.342M507.506 546.928L504.781 496.721M583.348 536.342L575.294 486.869M583.348 536.342L651.114 516.202M504.781 496.721L575.294 486.869M504.781 496.721L500.304 446.653M575.294 486.869L564.807 437.655M575.294 486.869L638.276 468.139M500.304 446.653L564.807 437.655M564.807 437.655L552.04 389.152M564.807 437.655L622.435 420.512M552.04 389.152L537.075 341.851M552.04 389.152L603.725 373.779M537.075 341.851L520.064 296.203M537.075 341.851L582.339 328.386M501.197 252.635L520.064 296.203M501.197 252.635L480.644 211.577M501.197 252.635L532.384 243.363M520.064 296.203L558.489 284.773M480.644 211.577L458.585 173.416M480.644 211.577L504.286 204.546M458.585 173.416L435.24 138.529M458.585 173.416L474.473 168.689M435.24 138.529L443.223 136.156M443.223 136.156L474.473 168.689M443.223 136.156L449.96 132.743M474.473 168.689L504.286 204.546M474.473 168.689L487.852 161.892M504.286 204.546L524.221 194.438M504.286 204.546L532.384 243.363M532.384 243.363L558.489 284.773M532.384 243.363L558.65 230.032M558.489 284.773L582.339 328.386M558.489 284.773L590.835 268.371M582.339 328.386L620.47 309.054M582.339 328.386L603.725 373.779M603.725 373.779L647.254 351.699M603.725 373.779L622.435 420.512M622.435 420.512L670.963 395.907M622.435 420.512L638.276 468.139M638.276 468.139L691.327 441.248M638.276 468.139L651.114 516.202M651.114 516.202L708.169 487.253M651.114 516.202L660.81 564.225M660.81 564.225L721.327 533.533M660.81 564.225L667.272 611.762M667.272 611.762L730.681 579.605M667.272 611.762L670.443 658.34M670.443 658.34L736.121 625.029M670.443 658.34L670.293 703.52M670.293 703.52L666.831 746.856M670.293 703.52L737.621 669.384M666.831 746.856L660.078 787.959M666.831 746.856L735.131 712.237M660.078 787.959L650.109 826.41M660.078 787.959L728.703 753.152M650.109 826.41L637.009 861.828M650.109 826.41L718.406 791.772M637.009 861.828L620.895 893.906M637.009 861.828L704.318 827.696M620.895 893.906L601.959 922.3M620.895 893.906L686.573 860.595M601.959 922.3L580.352 946.757M601.959 922.3L665.353 890.167M580.352 946.757L556.285 967.033M580.352 946.757L638.479 917.278M556.285 967.033L529.988 982.958M556.285 967.033L613.344 938.104M529.988 982.958L583.054 956.043L613.344 938.104M613.344 938.104L638.479 917.278M638.479 917.278L640.869 916.066M638.479 917.278L644.22 912.52M640.869 916.066L644.22 912.52M640.869 916.066L687.737 877.23L714.448 849.478M665.353 890.167L686.573 860.595M665.353 890.167L714.448 849.478M665.353 890.167L644.22 912.52M686.573 860.595L704.318 827.696M686.573 860.595L737.416 818.475M704.318 827.696L718.406 791.772M704.318 827.696L756.42 784.53M718.406 791.772L728.703 753.152M718.406 791.772L771.285 747.96M728.703 753.152L735.131 712.237M728.703 753.152L781.841 709.125M735.131 712.237L737.621 669.384M735.131 712.237L788.01 668.425M736.121 625.029L730.681 579.605M736.121 625.029L786.964 582.91M736.121 625.029L737.621 669.384M737.621 669.384L789.719 626.198M730.681 579.605L721.327 533.533M730.681 579.605L779.757 538.921M721.327 533.533L708.169 487.253M721.327 533.533L768.176 494.702M708.169 487.253L691.327 441.248M708.169 487.253L752.344 450.65M691.327 441.248L670.963 395.907M691.327 441.248L732.391 407.205M670.963 395.907L647.254 351.699M670.963 395.907L708.525 364.788M647.254 351.699L620.47 309.054M647.254 351.699L680.966 323.778M620.47 309.054L590.835 268.371M620.47 309.054L649.984 284.605M590.835 268.371L558.65 230.032M590.835 268.371L615.873 247.613M524.221 194.438L487.852 161.892M524.221 194.438L539.643 181.662M524.221 194.438L558.65 230.032M558.65 230.032L578.977 213.194M487.852 161.892L449.96 132.743M487.852 161.892L498.235 153.311M449.96 132.743L455.156 128.429M455.156 128.429L498.235 153.311M455.156 128.429L458.644 123.376M498.235 153.311L539.643 181.662M498.235 153.311L505.179 143.251M539.643 181.662L549.98 166.68M539.643 181.662L578.977 213.194M578.977 213.194L615.873 247.613M578.977 213.194L592.599 193.453M615.873 247.613L649.984 284.605M615.873 247.613L632.661 223.319M649.984 284.605L680.966 323.778M649.984 284.605L669.757 255.958M680.966 323.778L703.558 291.054M680.966 323.778L708.525 364.788M708.525 364.788L732.391 407.205M708.525 364.788L733.701 328.318M732.391 407.205L759.921 367.341M732.391 407.205L752.344 450.65M752.344 450.65L781.946 407.792M752.344 450.65L768.176 494.702M768.176 494.702L779.757 538.921M768.176 494.702L799.585 449.228M779.757 538.921L786.964 582.91M779.757 538.921L812.641 491.285M786.964 582.91L789.719 626.198M786.964 582.91L821.029 533.554M789.719 626.198L788.01 668.425M789.719 626.198L824.628 575.638M788.01 668.425L781.841 709.125M788.01 668.425L823.431 617.113M781.841 709.125L771.285 747.96M781.841 709.125L817.436 657.575L823.431 617.113M771.285 747.96L756.42 784.53M771.285 747.96L806.706 696.648M756.42 784.53L737.416 818.475M756.42 784.53L791.345 733.946M737.416 818.475L714.448 849.478M737.416 818.475L771.481 769.12L791.345 733.946M644.22 912.52L657.519 901.501M791.345 733.946L806.706 696.648M806.706 696.648L823.314 639.793L834.128 600.44L840.039 560.258M823.431 617.113L824.628 575.638M823.431 617.113L840.039 560.258M824.628 575.638L821.029 533.554M824.628 575.638L841 519.599M821.029 533.554L812.641 491.285M821.029 533.554L837.001 478.911M812.641 491.285L799.585 449.228M812.641 491.285L828.068 438.512M781.946 407.792L759.921 367.341M781.946 407.792L795.831 360.289M781.946 407.792L799.585 449.228M799.585 449.228L814.292 398.847M759.921 367.341L733.701 328.318M759.921 367.341L772.819 323.193M703.558 291.054L669.757 255.958M703.558 291.054L714.145 254.82M703.558 291.054L733.701 328.318M733.701 328.318L745.495 287.935M669.757 255.958L632.661 223.319M669.757 255.958L679.046 224.215M632.661 223.319L592.599 193.453M632.661 223.319L640.533 196.374M549.98 166.68L505.179 143.251M549.98 166.68L554.813 150.103M549.98 166.68L592.599 193.453M592.599 193.453L598.994 171.603M505.179 143.251L458.644 123.376M505.179 143.251L508.422 132.108M458.644 123.376L460.28 117.776M460.28 117.776L508.422 132.108M508.422 132.108L554.813 150.103M554.813 150.103L598.994 171.603M598.994 171.603L640.533 196.374M640.533 196.374L679.046 224.215M679.046 224.215L714.145 254.82M714.145 254.82L745.495 287.935M745.495 287.935L772.819 323.193M772.819 323.193L795.831 360.289M795.831 360.289L814.292 398.847M814.292 398.847L828.068 438.512M814.292 398.847L811.789 345.503M828.068 438.512L837.001 478.911M837.001 478.911L834.27 421.026M841 519.599L840.039 560.258M841 519.599L838.218 460.29L834.27 421.026" stroke="white" stroke-linecap="round" stroke-linejoin="round"/>
</svg>
