<svg width="190" height="588" viewBox="0 0 190 588" fill="none" xmlns="http://www.w3.org/2000/svg">
<path opacity="0.08" fill-rule="evenodd" clip-rule="evenodd" d="M177.014 276.978L177.014 276.978C161.925 285.653 146.837 294.327 131.909 303.28C131.943 315.055 131.88 326.829 131.817 338.602L131.817 338.603C131.738 353.563 131.658 368.522 131.776 383.481C146.038 375.341 160.243 367.11 174.45 358.879L174.461 358.872L174.518 358.839C179.615 355.885 184.713 352.932 189.814 349.982C189.763 338.906 189.831 327.831 189.898 316.758C189.994 301.036 190.09 285.315 189.848 269.592C185.572 272.058 181.293 274.518 177.014 276.978ZM171.126 239.899C176.927 243.208 182.727 246.518 188.523 249.836C188.702 207.196 188.974 164.556 189.247 121.917L189.247 121.916L189.247 121.916L189.247 121.916C189.418 95.1199 189.589 68.3236 189.737 41.5271C189.723 39.9544 189.558 38.3876 189.393 36.8236L189.363 36.5345C170.069 47.6377 150.786 58.7613 131.575 70.0081C131.551 75.1054 131.545 80.2037 131.54 85.3024L131.54 85.3051L131.54 85.3056L131.54 85.3061L131.54 85.3065L131.54 85.307C131.531 93.8293 131.522 102.353 131.427 110.876C131.117 138.163 131.384 165.451 131.651 192.738L131.651 192.74C131.731 200.949 131.812 209.158 131.876 217.367C144.921 224.947 158.024 232.423 171.126 239.899ZM186.633 259.387C180.861 262.746 175.095 266.115 169.328 269.483C156.303 277.093 143.277 284.702 130.19 292.209C123.059 288.166 115.919 284.137 108.779 280.108L108.748 280.09C84.9832 266.678 61.2177 253.265 37.7416 239.353C30.4086 235.01 23.0323 230.741 15.6572 226.472L15.6562 226.471L15.6552 226.471L15.6542 226.47L15.6532 226.47L15.6522 226.469L15.6446 226.465C11.2337 223.912 6.82323 221.359 2.42269 218.791C2.2884 196.53 2.2963 174.269 2.3279 152.008L2.59347 152.126C4.03018 152.766 5.4694 153.406 6.83854 154.18C29.9715 167.707 53.0926 181.254 76.2138 194.8C113.004 216.356 149.795 237.911 186.633 259.387ZM1.21442 374.022C7.01048 377.341 12.8117 380.651 18.6129 383.961C31.7149 391.436 44.8171 398.912 57.8609 406.491C57.9255 414.698 58.0059 422.905 58.0863 431.112L58.0863 431.114L58.0863 431.115L58.0863 431.117L58.0863 431.119L58.0863 431.121C58.3535 458.407 58.6206 485.695 58.3106 512.982C58.2155 521.505 58.2063 530.027 58.1972 538.549L58.1972 538.554C58.1917 543.653 58.1862 548.752 58.1623 553.851C38.9509 565.097 19.6684 576.221 0.374044 587.324L0.343694 587.035L0.343648 587.035C0.179189 585.471 0.0144398 583.904 5.08394e-05 582.332C0.148062 555.536 0.319282 528.74 0.490502 501.945C0.76298 459.304 1.03544 416.664 1.21442 374.022ZM169.33 22.7266L169.329 22.7264L169.328 22.7258L169.328 22.7258C156.303 15.1164 143.277 7.50699 130.19 -2.61437e-06C123.048 4.04887 115.898 8.08423 108.748 12.1196C84.9832 25.5315 61.2177 38.944 37.7416 52.856C30.4078 57.1999 23.0307 61.4697 15.6548 65.7387L15.653 65.7398L15.6502 65.7414L15.6474 65.7431L15.6446 65.7447C11.2337 68.2976 6.82321 70.8503 2.4227 73.4185C2.2884 95.6795 2.29631 117.94 2.32789 140.201L2.59332 140.083C4.03007 139.444 5.46934 138.803 6.83854 138.029C29.9705 124.503 53.0907 110.957 76.211 97.4105C113.002 75.8545 149.794 54.2984 186.633 32.8227C180.862 29.4633 175.096 26.095 169.33 22.7267L169.33 22.7266ZM71.979 275.281C71.9699 270.345 71.9608 265.409 71.9591 260.473C58.221 268.126 44.6542 276.069 31.0865 284.013L31.0843 284.014L31.084 284.014C21.5286 289.609 11.9726 295.204 2.35604 300.698C2.35185 306.611 2.34268 312.523 2.33351 318.435L2.33351 318.437L2.33351 318.438C2.30806 334.862 2.28261 351.284 2.36394 367.71C15.378 360.332 28.2932 352.784 41.209 345.234L41.211 345.233C51.3752 339.293 61.54 333.352 71.7537 327.493C72.0429 310.09 72.0109 292.686 71.979 275.282L71.979 275.281ZM116.648 158.777C120.562 156.508 124.475 154.239 128.391 151.976C116.021 144.578 103.499 137.45 90.9754 130.32C82.1544 125.299 73.333 120.277 64.5641 115.161C59.8675 117.868 55.169 120.571 50.4707 123.274C37.4227 130.781 24.3762 138.286 11.3753 145.878C23.196 152.827 35.1068 159.62 47.0183 166.412C56.3926 171.758 65.7672 177.104 75.0986 182.527C89.0467 174.78 102.847 166.779 116.648 158.777Z" fill="white"/>
</svg>
