<svg width="248" height="31" viewBox="0 0 248 31" fill="none" xmlns="http://www.w3.org/2000/svg">
<path d="M11.5352 5.90234H0.265625V0.472656H28.9961V5.90234H17.7266V31H11.5352V5.90234ZM35.6172 0.472656H61.6133V5.90234H41.8086V11.9961H59.3477V17.0938H41.8086V25.5898H62.0234V31H35.6172V0.472656ZM68.8984 0.472656H75.0898V16.2734L91.2031 0.472656H99.1328L84.0938 15.043L99.1328 31H90.8906L79.6406 19.3594L75.0898 23.7539V31H68.8984V0.472656ZM115.461 0.472656H131.555C133.898 0.472656 135.93 0.726562 137.648 1.23438C139.367 1.74219 140.793 2.47786 141.926 3.44141C143.059 4.39193 143.898 5.55729 144.445 6.9375C145.005 8.31771 145.285 9.8737 145.285 11.6055C145.285 13.2331 145.012 14.737 144.465 16.1172C143.918 17.4974 143.078 18.6953 141.945 19.7109C140.826 20.7135 139.406 21.5013 137.688 22.0742C135.969 22.6341 133.938 22.9141 131.594 22.9141L121.652 22.8945V31H115.461V0.472656ZM131.711 17.543C132.883 17.543 133.905 17.4062 134.777 17.1328C135.663 16.8464 136.398 16.4492 136.984 15.9414C137.583 15.4206 138.026 14.7956 138.312 14.0664C138.612 13.3242 138.762 12.5039 138.762 11.6055C138.762 9.79557 138.169 8.38932 136.984 7.38672C135.812 6.37109 134.055 5.86328 131.711 5.86328H121.652V17.543H131.711ZM152.062 0.472656H158.254V25.5703H176.008V31H152.062V0.472656ZM192.434 0.472656H198.996L213.762 31H207.258L204.816 25.8633H186.984L184.621 31H178.098L192.434 0.472656ZM202.375 20.7656L195.773 6.89844L189.348 20.7656H202.375ZM227.863 23.4414L214.523 0.472656H221.535L230.93 17.8359L240.207 0.472656H247.219L234.055 23.4023V31H227.863V23.4414Z" fill="white"/>
</svg>
